<?xml version="1.0" encoding="utf-8"?>
<!-- Generator: Adobe Illustrator 23.1.1, SVG Export Plug-In . SVG Version: 6.00 Build 0)  -->
<svg version="1.1" id="Layer_1" xmlns="http://www.w3.org/2000/svg" xmlns:xlink="http://www.w3.org/1999/xlink" x="0px" y="0px"
	 viewBox="0 0 320 64" style="enable-background:new 0 0 320 64;" xml:space="preserve">
<style type="text/css">
	.st0{fill:#253858;}
	.st1{fill:#FF7F66;}
	.st2{opacity:0.32;fill:#2A344F;enable-background:new    ;}
	.st3{opacity:0.16;}
	.st4{fill:#2A344F;}
</style>
<g id="Group_16" transform="translate(-339 -3309)">
	<path id="Path_42" class="st0" d="M443,3324.1v4.5c0,0.1-0.1,0.1-0.1,0.1l0,0h-10.3v27.9c0,0.1-0.1,0.1-0.1,0.1l0,0h-4.9
		c-0.1,0-0.1-0.1-0.1-0.1l0,0v-27.9h-10.3c-0.1,0-0.1-0.1-0.1-0.1l0,0v-4.5c0-0.1,0.1-0.1,0.1-0.1h25.7
		C442.9,3324,443,3324.1,443,3324.1z M456.7,3334c-2.6,0-5.1,1.2-6.7,3.3v-10c0-0.2-0.1-0.4-0.3-0.5l-4.5-2.6c-0.1,0-0.2,0-0.2,0.1
		c0,0,0,0,0,0.1v32.4c0,0.1,0.1,0.1,0.1,0.1l0,0h4.7c0.1,0,0.1-0.1,0.1-0.1l0,0v-12.3c0-3.4,2-5.6,5.2-5.6c3.4,0,4.9,2.4,4.9,5.6
		l0,0v12.4c0,0.1,0.1,0.1,0.1,0.1l0,0h4.7c0.1,0,0.1-0.1,0.1-0.1V3343C465.1,3338,462.4,3334,456.7,3334L456.7,3334z M490.1,3345.5
		c0,0.5,0,1-0.1,1.5h-17c0.1,3.4,3.3,5.8,6.6,5.8c2.7,0,4.9-1,5.9-3.6c0-0.1,0.1-0.1,0.2-0.1l3.9,1.2c0.1,0,0.1,0.1,0.1,0.2
		c-1.3,4.2-5.6,6.6-10,6.6c-0.1,0-0.3,0-0.4,0c-6.3-0.1-11.4-5.3-11.3-11.6c-0.2-6.2,4.7-11.4,11-11.6c0.1,0,0.2,0,0.3,0
		C486.1,3334,490.1,3338.8,490.1,3345.5L490.1,3345.5z M485,3343.3c-0.2-3.2-2.7-5.1-5.8-5.1c-3-0.1-5.6,2.1-5.9,5.1H485z
		 M518.7,3333.9c-3-0.1-5.9,1.3-7.8,3.7c-1.3-2.2-3.5-3.7-6.9-3.7c-2.7,0-5.1,1.3-6.7,3.5v-2.9c0-0.1-0.1-0.1-0.1-0.1h-4.6
		c-0.1,0-0.1,0.1-0.1,0.1v22.1c0,0.1,0.1,0.1,0.1,0.1l0,0h4.7c0.1,0,0.1-0.1,0.1-0.1l0,0v-12.3c0-3.4,1.8-5.7,4.9-5.7
		c3.4,0,4.8,2.4,4.8,5.6v12.4c0,0.1,0.1,0.1,0.1,0.1l0,0h4.7c0.1,0,0.1-0.1,0.1-0.1l0,0v-12.4c0-3.4,1.8-5.6,4.9-5.6
		c3.4,0,4.8,2.4,4.8,5.5v12.5c0,0.1,0.1,0.1,0.1,0.1l0,0h4.7c0.1,0,0.1-0.1,0.1-0.1l0,0V3343
		C526.8,3337.9,524.3,3333.9,518.7,3333.9L518.7,3333.9z M551.8,3345.5c0,0.5,0,1-0.1,1.5h-17c0.1,3.4,3.3,5.8,6.6,5.8
		c2.7,0,4.9-1,5.9-3.6c0-0.1,0.1-0.1,0.2-0.1l3.9,1.2c0.1,0,0.1,0.1,0.1,0.2c-1.3,4.2-5.6,6.6-10,6.6c-0.1,0-0.3,0-0.4,0
		c-6.3-0.1-11.4-5.3-11.3-11.6c-0.2-6.2,4.7-11.4,11-11.6c0.1,0,0.2,0,0.3,0C547.9,3334,551.8,3338.8,551.8,3345.5L551.8,3345.5z
		 M546.7,3343.3c-0.2-3.2-2.7-5.1-5.8-5.1l0,0c-3-0.1-5.6,2.1-5.9,5.1H546.7z M564.5,3343.5l-3.1-0.7c-1.2-0.3-2.2-1-2.2-2.3
		c0.2-1.5,1.5-2.7,3.1-2.5c1.9-0.1,3.6,1.1,4,3c0,0.1,0.1,0.1,0.2,0.1l0,0l3.9-1.1c0.1,0,0.1-0.1,0.1-0.2c-0.4-2.2-2.5-5.8-8.2-5.8
		c-4.6,0-7.9,3.3-7.9,7c0,2.9,1.8,5.5,5.9,6.4l2.9,0.7c1.9,0.4,2.7,1.2,2.7,2.5c0,1.6-1.1,2.6-3.2,2.6c-2.1,0.1-4-1.4-4.4-3.4
		c0-0.1-0.1-0.1-0.2-0.1l0,0l-4,1.1c-0.1,0-0.1,0.1-0.1,0.2c0.4,2.5,2.8,6.4,8.8,6.4l0,0c5.6,0,8.2-3.5,8.2-7
		C570.8,3347,568.6,3344.4,564.5,3343.5L564.5,3343.5z M596.8,3345.5c0,6.1-4.5,11.6-11.1,11.6c-2.1,0-5.8-1.2-7.4-3.8v3.3
		c0,0.1-0.1,0.1-0.1,0.1h-4.6c-0.1,0-0.1-0.1-0.1-0.1v-29.4c0-0.2,0.1-0.4,0.3-0.5l4.5-2.6c0.1,0,0.2,0,0.2,0.1c0,0,0,0,0,0.1v13.5
		c1.5-2.5,5-3.7,7.4-3.7C592.6,3334,596.8,3339.9,596.8,3345.5L596.8,3345.5z M591.7,3345.6c0-3.9-2.7-7.1-6.7-7.1s-6.7,3.2-6.7,7.1
		c0,3.8,2.7,7,6.7,7C589.1,3352.6,591.7,3349.4,591.7,3345.6L591.7,3345.6z M620.5,3345.5c0,0.5,0,1-0.1,1.5h-17
		c0.1,3.4,3.3,5.8,6.6,5.8c2.7,0,4.9-1,5.9-3.6c0-0.1,0.1-0.1,0.2-0.1l3.9,1.2c0.1,0,0.1,0.1,0.1,0.2c-1.3,4.2-5.6,6.6-10,6.6
		c-0.1,0-0.3,0-0.4,0c-6.3-0.1-11.4-5.3-11.3-11.6c-0.2-6.2,4.7-11.4,11-11.6c0.1,0,0.2,0,0.3,0
		C616.5,3334,620.5,3338.8,620.5,3345.5L620.5,3345.5z M615.4,3343.3c-0.2-3.2-2.7-5.1-5.8-5.1l0,0c-3-0.1-5.6,2.1-5.9,5.1H615.4z
		 M659,3334.6v22.1c0,7.1-5.3,11.3-12.1,11.3c-4.7,0-9.7-2.2-10.9-7c-0.1-0.3,0.1-0.6,0.4-0.7l3.1-0.9c0.6-0.2,1.1,0.1,1.4,0.6
		c1.1,2.2,3.4,3.5,5.8,3.5c3.7,0,7.3-2,7.3-6.6v-3.7c-1.8,2.9-5.5,3.8-7.3,3.8c-6.4,0-10.9-5.4-10.9-11.4c0-5.4,4-11.5,11-11.5
		c2.9,0,5.6,1.4,7.3,3.8v-3.2c0-0.1,0.1-0.1,0.1-0.1l0,0h4.6C658.9,3334.5,659,3334.5,659,3334.6L659,3334.6z M654.1,3345.5
		c0-3.9-2.6-7-6.7-7s-6.7,3.1-6.7,7c0,3.8,2.6,7,6.7,7S654.1,3349.3,654.1,3345.5L654.1,3345.5z M637.9,3335.3
		c0.2-0.2,0.2-0.6,0-0.8c-0.1-0.1-0.3-0.2-0.4-0.2c-1.4,0-2.5,0-2.9,0c-2.6,0-4.9,1.4-6.1,3.6v-3.3c0-0.1-0.1-0.1-0.1-0.1h-4.6
		c-0.1,0-0.1,0.1-0.1,0.1v22.1c0,0.1,0.1,0.1,0.1,0.1l0,0h4.7c0.1,0,0.1-0.1,0.1-0.1v-11.2c0-3.8,2-6.1,5.8-6.1c0.2,0,0.4,0,0.6,0
		c0.5-1.1,1.2-2.2,2.1-3.2C637.2,3335.9,637.5,3335.6,637.9,3335.3L637.9,3335.3z"/>
	<g id="Group_15" transform="translate(1988.909 6484.484)">
		<g id="Group_12" transform="translate(-1649.909 -3175.484)">
			<path id="Path_35" class="st1" d="M53.5,1.9l-22,5.4c-0.4,0.1-0.9,0-1.2-0.2L19.9,0.3C19.5,0,19-0.1,18.6,0.1l-18,5.3
				C0.2,5.5,0,5.8,0,6.1v10.8l18.6-5.5c0.4-0.1,0.9-0.1,1.3,0.2l10.4,6.8c0.4,0.2,0.8,0.3,1.2,0.2L54,13.1V2.2
				C54,2,53.8,1.8,53.5,1.9C53.6,1.9,53.5,1.9,53.5,1.9z"/>
			<path id="Path_36" class="st1" d="M40.2,27.8l-8.7,2.1c-0.4,0.1-0.9,0-1.2-0.2l-10.4-6.8c-0.2-0.1-0.4-0.1-0.5,0.1
				c0,0.1-0.1,0.1-0.1,0.2v10.2c0,0.3,0.1,0.5,0.3,0.6l10.7,7c0.4,0.2,0.8,0.3,1.2,0.2l9.2-2.2c3.1-0.7,5.2-3.5,5.3-6.6v-0.2
				c0-2.5-2.1-4.6-4.7-4.5C41,27.7,40.6,27.7,40.2,27.8z"/>
			<path id="Path_37" class="st1" d="M40.2,50.5l-8.7,2.1c-0.4,0.1-0.9,0-1.2-0.2l-10.4-6.8c-0.2-0.1-0.4-0.1-0.5,0.1
				c0,0.1-0.1,0.1-0.1,0.2v10.2c0,0.3,0.1,0.5,0.3,0.6l10.7,7c0.4,0.2,0.8,0.3,1.2,0.2l9.2-2.2c3.1-0.7,5.2-3.5,5.3-6.6v-0.2
				c0-2.5-2.1-4.6-4.7-4.5C41,50.4,40.6,50.4,40.2,50.5z"/>
		</g>
		<path id="Path_38" class="st2" d="M-1619.1-3134.2v-11.3c0.2,0,0.4,0,0.7,0l3.8-0.9l2.2,10.8l-6,1.5
			C-1618.6-3134.2-1618.8-3134.2-1619.1-3134.2z M-1610.2-3124.9l-8.2,2c-0.2,0.1-0.4,0.1-0.7,0v11.3c0.2,0,0.4,0,0.7,0l10.4-2.5
			L-1610.2-3124.9z M-1619.1-3156.9c0.2,0,0.4,0,0.7,0l1.6-0.4l-2.2-10.9L-1619.1-3156.9z"/>
		<g id="Group_13" transform="translate(-1630.623 -3175.462)" class="st3">
			<path id="Path_39" class="st4" d="M0,11.3c0.2,0,0.4,0.1,0.6,0.2L11,18.4c0.2,0.1,0.4,0.2,0.6,0.2V7.3c-0.2,0-0.4-0.1-0.6-0.2
				L0.6,0.2C0.4,0.1,0.2,0,0,0V11.3z"/>
			<path id="Path_40" class="st4" d="M11.6,52.6c-0.2,0-0.4-0.1-0.6-0.2L0.6,45.6c-0.2-0.1-0.4-0.1-0.5,0.1C0,45.8,0,45.8,0,45.9
				v10.2c0,0.3,0.1,0.5,0.3,0.6l10.7,7c0.2,0.1,0.4,0.2,0.6,0.2V52.6z"/>
			<path id="Path_41" class="st4" d="M0.6,22.9c-0.2-0.1-0.4-0.1-0.5,0.1C0,23.1,0,23.1,0,23.2v10.2c0,0.3,0.1,0.5,0.3,0.6L11,41
				c0.2,0.1,0.4,0.2,0.6,0.2V29.9c-0.2,0-0.4-0.1-0.6-0.2L0.6,22.9z"/>
		</g>
	</g>
</g>
</svg>
