<?xml version="1.0" encoding="utf-8"?>
<!-- Generator: Adobe Illustrator 23.1.1, SVG Export Plug-In . SVG Version: 6.00 Build 0)  -->
<svg version="1.1" id="Capa_1" xmlns="http://www.w3.org/2000/svg" xmlns:xlink="http://www.w3.org/1999/xlink" x="0px" y="0px"
	 viewBox="0 0 512 512" style="enable-background:new 0 0 512 512;" xml:space="preserve">
<style type="text/css">
	.st0{fill:#0948B3;}
	.st1{fill:#FFE2B8;}
	.st2{fill:#FFFFFF;}
	.st3{fill:#445EA0;}
	.st4{fill:#293D7C;}
	.st5{fill:#D9EAFC;}
	.st6{fill:#EE5050;}
	.st7{fill:#CF4D50;}
	.st8{fill:#AEC1ED;}
	.st9{fill:#FFC987;}
	.st10{fill:#058A77;}
	.st11{fill:#05A677;}
</style>
<circle class="st0" cx="256" cy="267" r="245"/>
<path class="st1" d="M254,385.1c-0.4-0.6-1-1-1.7-1c-0.3,0-0.7,0.1-1,0.3c-1.3,0.8-2.8,1.2-4.4,1.2c-3.2,0-6.1-1.7-7.7-4.4l-4.5-7.8
	c-2.4-4.2-1-9.6,3.2-12.1c1-0.6,1.3-1.8,0.7-2.7c-0.4-0.6-1-1-1.7-1c-0.3,0-0.7,0.1-1,0.3c-1.3,0.8-2.9,1.2-4.4,1.2
	c-3.2,0-6.1-1.7-7.7-4.4l-4.5-7.8c-2.4-4.2-1-9.6,3.2-12.1c1-0.6,1.3-1.8,0.7-2.7c-0.4-0.6-1-1-1.7-1c-0.3,0-0.7,0.1-1,0.3l-4.2,2.5
	c-1.3,0.8-2.8,1.2-4.4,1.2c-0.4,0-0.9,0-1.3-0.1c-0.1,0-0.2,0-0.3,0c-0.7,0-1.3,0.3-1.7,0.9c-0.4,0.6-0.5,1.5-0.1,2.1l2.9,5
	c2.4,4.2,1,9.5-3.2,11.9l-11.9,6.9c-1.3,0.8-2.8,1.2-4.3,1.2c-3.1,0-6-1.7-7.6-4.4l-3.9-6.8l-1.7,1l44.3,76.7l29.1-16.8
	c-0.8-0.7-1.5-1.4-2-2.3l-4.5-7.8c-2.4-4.2-1-9.7,3.2-12.1l4.2-2.4C254.2,387.2,254.6,386,254,385.1z"/>
<path class="st2" d="M375.8,159.2l23.7-13.7c2.4-1.4,3.2-4.4,1.8-6.8l-41.1-71.1c-1.4-2.4-4.4-3.2-6.8-1.8l-23.7,13.7L375.8,159.2z"
	/>
<path class="st3" d="M183.7,303.3c3.1,0,6,1.7,7.6,4.4l4.4,7.5c0.4,0.6,1,1,1.7,1c0,0,0.1,0,0.1,0c0.8-0.1,1.4-0.5,1.7-1.3
	c0.7-1.9,2.1-3.4,3.8-4.4l35.4-20.4c0.1,0,0.1-0.1,0.2-0.1l-23.6-40.8l-48.9,28.2l15.2,26.3C182.1,303.4,182.9,303.3,183.7,303.3z"
	/>
<g>
	<path class="st4" d="M183.7,303.3c3.1,0,6,1.7,7.6,4.4l4.4,7.5c0.4,0.6,1,1,1.7,1c0,0,0.1,0,0.1,0c0.8-0.1,1.4-0.5,1.7-1.3
		c0.7-1.9,2.1-3.4,3.8-4.4l0.3-0.2l-23.6-40.8l-13.6,7.9l15.2,26.3C182.1,303.4,182.9,303.3,183.7,303.3z"/>
	<path class="st4" d="M245.8,402.3c-2.4-4.2-1-9.7,3.2-12.1l0.3-0.2l-2.6-4.6c-3.1-0.1-6-1.7-7.5-4.4l-4.5-7.8
		c-1.6-2.8-1.5-6.1-0.1-8.7l-3.3-5.7c-3.1-0.1-6-1.7-7.5-4.4l-4.5-7.8c-1.6-2.8-1.5-6.1-0.1-8.7l-2.6-4.6l-0.3,0.2
		c-1.3,0.8-2.8,1.2-4.4,1.2c-0.4,0-0.9,0-1.3-0.1c-0.1,0-0.2,0-0.3,0c-0.7,0-1.3,0.3-1.7,0.9c-0.4,0.6-0.5,1.5-0.1,2.1l2.9,5
		c2,3.5,1.3,7.9-1.5,10.7l28.2,48.8c1.4,2.4,4.4,3.2,6.8,1.8l1.3-0.8L245.8,402.3z"/>
</g>
<path class="st2" d="M117.3,224.9l-26.5,15.3c-2.4,1.4-3.2,4.4-1.8,6.8l21.3,37c1.4,2.4,4.4,3.2,6.8,1.8l26.5-15.3L117.3,224.9z"/>
<path class="st5" d="M103.8,244.4l18.5-10.7l-5.1-8.8l-26.5,15.3c-2.4,1.4-3.2,4.4-1.8,6.8l21.3,37c1.4,2.4,4.4,3.2,6.8,1.8l3.7-2.1
	L102,251.2C100.6,248.8,101.5,245.7,103.8,244.4z"/>
<polygon class="st2" points="273.4,38.7 186.9,171 225.1,237.1 382.8,228.4 "/>
<polygon class="st5" points="273.4,38.7 186.9,171 198.6,191.2 285,58.9 "/>
<path class="st6" d="M229.9,237.7c1.4,2.4,0.6,5.5-1.8,6.8l-72.4,41.8c-2.4,1.4-5.5,0.6-6.8-1.8l-41.1-71.1
	c-1.4-2.4-0.6-5.5,1.8-6.8l72.4-41.8c2.4-1.4,5.5-0.6,6.8,1.8L229.9,237.7z"/>
<path class="st7" d="M127.1,218.7c-1.4-2.4-0.6-5.5,1.8-6.8l64.5-37.2l-4.6-8c-1.4-2.4-4.4-3.2-6.8-1.8l-72.4,41.8
	c-2.4,1.4-3.2,4.4-1.8,6.8l41.1,71.1c1.4,2.4,4.4,3.2,6.8,1.8l7.9-4.5L127.1,218.7z"/>
<path class="st6" d="M421.2,234.4c1.4,2.4,0.6,5.5-1.8,6.8l-19.6,11.3c-2.4,1.4-5.5,0.6-6.8-1.8L259,18.8c-1.4-2.4-0.6-5.5,1.8-6.8
	l19.6-11.3c2.4-1.4,5.5-0.6,6.8,1.8L421.2,234.4z"/>
<path class="st7" d="M276,24.5c-1.4-2.4-0.6-5.5,1.8-6.8l13.6-7.9l-4.2-7.3c-1.4-2.4-4.4-3.2-6.8-1.8L260.9,12
	c-2.4,1.4-3.2,4.4-1.8,6.8l133.9,231.9c1.4,2.4,4.4,3.2,6.8,1.8l6-3.4L276,24.5z"/>
<path class="st2" d="M139.5,378.1l-74.1,42.8c18.7,23.1,41.5,42.7,67.3,57.8l48.7-28.1L139.5,378.1z"/>
<path class="st8" d="M139.5,378.1l-74.1,42.8c3.5,4.3,7.2,8.6,11,12.7l71.3-41.2L139.5,378.1z"/>
<path class="st1" d="M197.4,363.2c-5.1,3-11.7,1.2-14.7-3.9l-20.2-35c-3-5.1-1.2-11.7,3.9-14.7l11.9-6.9c5.1-3,11.7-1.2,14.7,3.9
	l20.2,35c3,5.1,1.2,11.7-3.9,14.7L197.4,363.2z"/>
<path class="st9" d="M213.3,341.7l-20.2-35c-2-3.5-5.8-5.5-9.7-5.4l20.2,35c3,5.1,1.2,11.7-3.9,14.7l-11.9,6.9
	c-1.6,0.9-3.3,1.4-5,1.4l0,0c3,5.1,9.6,6.9,14.7,3.9l11.9-6.9C214.5,353.4,216.2,346.8,213.3,341.7z"/>
<path class="st6" d="M415,125c-2.6,0-5.1-1.3-6.5-3.8c-2.1-3.6-0.8-8.2,2.7-10.2c9-5.2,12-16.7,6.9-25.6c-5.2-9-16.7-12-25.6-6.9
	c-3.6,2.1-8.2,0.8-10.2-2.7c-2.1-3.6-0.8-8.2,2.7-10.2c16.1-9.3,36.8-3.8,46.1,12.4s3.8,36.8-12.4,46.1
	C417.6,124.6,416.3,125,415,125z"/>
<path class="st6" d="M430,150.9c-2.6,0-5.1-1.3-6.5-3.8c-2.1-3.6-0.8-8.2,2.7-10.2c23.3-13.4,31.3-43.3,17.8-66.6
	c-6.5-11.3-17-19.3-29.6-22.7c-12.6-3.4-25.7-1.6-37,4.9c-3.6,2.1-8.2,0.8-10.2-2.7c-2.1-3.6-0.8-8.2,2.7-10.2
	c14.7-8.5,31.9-10.8,48.4-6.4s30.2,15,38.7,29.7c17.6,30.4,7.1,69.5-23.3,87.1C432.6,150.6,431.3,150.9,430,150.9z"/>
<path class="st1" d="M256.8,300.1c3,5.2,1.2,11.8-4,14.8l-35.4,20.4c-5.2,3-11.8,1.2-14.8-4l-4.5-7.8c-3-5.2-1.2-11.8,4-14.8
	l35.4-20.4c5.2-3,11.8-1.2,14.8,4L256.8,300.1z"/>
<path class="st9" d="M213.4,334.7l-4.5-7.8c-3-5.2-1.2-11.8,4-14.8l35.4-20.4c0.9-0.5,1.8-0.8,2.7-1.1c-3.4-3.7-9-4.8-13.5-2.2
	L202,308.8c-5.2,3-7,9.7-4,14.8l4.5,7.8c2.5,4.3,7.5,6.3,12.2,5.1C214.2,335.9,213.8,335.3,213.4,334.7z"/>
<path class="st1" d="M276.3,324.2c3,5.2,1.2,11.8-4,14.8L237,359.5c-5.2,3-11.8,1.2-14.8-4l-4.5-7.8c-3-5.2-1.2-11.8,4-14.8
	l35.4-20.4c5.2-3,11.8-1.2,14.8,4L276.3,324.2z"/>
<path class="st9" d="M233,358.8l-4.5-7.8c-3-5.2-1.2-11.8,4-14.8l35.4-20.4c0.9-0.5,1.8-0.8,2.7-1.1c-3.3-3.7-9-4.8-13.5-2.2
	l-35.4,20.4c-5.2,3-7,9.7-4,14.8l4.5,7.8c2.5,4.3,7.5,6.3,12.2,5.1C233.8,360,233.4,359.4,233,358.8z"/>
<g>
	<path class="st1" d="M291.7,350.8c3,5.2,1.2,11.8-4,14.8l-35.4,20.4c-5.2,3-11.8,1.2-14.8-4l-4.5-7.8c-3-5.2-1.2-11.8,4-14.8
		l35.4-20.4c5.2-3,11.8-1.2,14.8,4L291.7,350.8z"/>
	<path class="st1" d="M302.8,379.8c3,5.2,1.2,11.8-4,14.8l-35.4,20.4c-5.2,3-11.8,1.2-14.8-4l-4.5-7.8c-3-5.2-1.2-11.8,4-14.8
		l35.4-20.4c5.2-3,11.8-1.2,14.8,4L302.8,379.8z"/>
</g>
<g>
	<path class="st9" d="M248.3,385.3l-4.5-7.8c-3-5.2-1.2-11.8,4-14.8l35.4-20.4c0.9-0.5,1.8-0.8,2.7-1.1c-3.3-3.7-9-4.8-13.5-2.2
		L237,359.5c-5.2,3-7,9.7-4,14.8l4.5,7.8c2.5,4.3,7.5,6.3,12.2,5.1C249.2,386.6,248.7,386,248.3,385.3z"/>
	<path class="st9" d="M259.4,414.4l-4.5-7.8c-3-5.2-1.2-11.8,4-14.8l35.4-20.4c0.9-0.5,1.8-0.8,2.7-1.1c-3.4-3.7-9-4.8-13.5-2.2
		l-35.4,20.4c-5.2,3-7,9.7-4,14.8l4.5,7.8c2.5,4.3,7.5,6.3,12.2,5.1C260.2,415.6,259.8,415,259.4,414.4z"/>
</g>
<path class="st10" d="M225.7,433.6c1.4,2.4,0.6,5.5-1.8,6.8l-34.4,19.9c-2.4,1.4-5.5,0.6-6.8-1.8l-50-86.5c-1.4-2.4-0.6-5.5,1.8-6.8
	l34.4-19.9c2.4-1.4,5.5-0.6,6.8,1.8L225.7,433.6z"/>
<path class="st11" d="M180.6,355.4l-29,16.8c-2.4,1.4-3.2,4.4-1.8,6.8l45.2,78.2l29-16.8c2.4-1.4,3.2-4.4,1.8-6.8L180.6,355.4z"/>
<circle class="st2" cx="194.6" cy="428.4" r="7.5"/>
</svg>
