<?xml version="1.0" encoding="utf-8"?>
<!-- Generator: Adobe Illustrator 23.1.1, SVG Export Plug-In . SVG Version: 6.00 Build 0)  -->
<svg version="1.1" id="Capa_1" xmlns="http://www.w3.org/2000/svg" xmlns:xlink="http://www.w3.org/1999/xlink" x="0px" y="0px"
	 viewBox="0 0 512 512" style="enable-background:new 0 0 512 512;" xml:space="preserve">
<style type="text/css">
	.st0{fill:#0948B3;}
	.st1{fill:#D9EAFC;}
	.st2{fill:#FFFFFF;}
	.st3{fill:#AEC1ED;}
	.st4{fill:#EE5050;}
	.st5{fill:#CF4D50;}
	.st6{fill:#EEF6FF;}
	.st7{fill:#445EA0;}
	.st8{fill:#05A677;}
	.st9{fill:#058A77;}
</style>
<circle class="st0" cx="256" cy="267" r="245"/>
<path class="st1" d="M216.8,378.9c12.6,0,24.3,6.4,31.2,17c0.2,0.3,0.5,0.4,0.8,0.5c0,0,0.1,0,0.1,0c0.3,0,0.6-0.1,0.7-0.3
	c10.3-11.7,25.1-18.3,40.6-18.3c5.3,0,10.4,0.8,15.2,2.2l-17.8-45.7h-63.1l-18,46.2C209.7,379.5,213.2,378.9,216.8,378.9z"/>
<g>
	<path class="st1" d="M232.7,334.2h-8.2l-18,46.2c2.8-0.8,5.8-1.3,8.8-1.4L232.7,334.2z"/>
	<path class="st1" d="M197.6,426.2c0,0.3,0.2,0.5,0.4,0.7c0.2,0.1,0.4,0.2,0.6,0.2c0.1,0,0.1,0,0.2,0c3.6-0.6,7.2-0.9,10.7-0.9
		c17.1,0,33.4,6.4,45.9,18.1c0.2,0.2,0.4,0.3,0.7,0.3c0.2,0,0.5-0.1,0.7-0.3c12.5-11.7,28.8-18.1,45.9-18.1c3.5,0,7.1,0.3,10.7,0.9
		c0.1,0,0.1,0,0.2,0c0.2,0,0.4-0.1,0.6-0.2c0.2-0.2,0.4-0.4,0.4-0.7c1.8-12.4,6.5-24.2,13.6-34.5c-9.9-9.3-23.2-15-37.8-15
		c-16.5,0-31.3,7.2-41.4,18.7c-6.8-10.5-18.6-17.5-32-17.5c-12.9,0-24.3,6.4-31.2,16.2C191.8,403.8,195.9,414.7,197.6,426.2z"/>
</g>
<path class="st2" d="M198.6,426c-6-40.5-40.9-71.6-83.1-71.6c-29.3,0-55.1,15-70.1,37.7c23,38.7,56.4,70.5,96.3,91.6
	C146,454.2,169.1,430.7,198.6,426z"/>
<path class="st1" d="M123.8,364.8c21.4,0,41.1,7.6,56.4,20.2c-15.4-18.7-38.7-30.6-64.8-30.6c-29.3,0-55.1,15-70.1,37.7
	c2,3.3,4.1,6.6,6.2,9.9C67.7,379.5,94,364.8,123.8,364.8z"/>
<path class="st2" d="M396.5,354.5c-42.2,0-77.1,31.1-83.1,71.6c29.4,4.7,52.6,28.1,56.9,57.7c39.9-21.1,73.3-52.9,96.3-91.6
	C451.6,369.4,425.8,354.5,396.5,354.5z"/>
<g>
	<path class="st1" d="M401.6,354.6c-1.7-0.1-3.4-0.2-5.1-0.2c-42.2,0-77.1,31.1-83.1,71.6c3.1,0.5,6.2,1.2,9.2,2.1
		C331,389.9,362.4,360.3,401.6,354.6z"/>
	<path class="st2" d="M302.6,425.2c-18,0-34.4,7-46.6,18.4c-12.2-11.4-28.6-18.4-46.6-18.4c-34.4,0-62.9,25.4-67.7,58.6
		c34.1,18,73,28.3,114.3,28.3s80.2-10.2,114.3-28.3C365.5,450.6,337,425.2,302.6,425.2z"/>
</g>
<path class="st1" d="M223.7,433.7c9.4,0,18.4,1.8,26.7,5.2c-11.4-8.6-25.6-13.7-41-13.7c-34.4,0-62.9,25.4-67.7,58.6
	c4,2.1,8.1,4.1,12.3,6C161,457.7,189.5,433.7,223.7,433.7z"/>
<g>
	<path class="st3" d="M278.5,334.2h-15.1l1.9,15.3c0.5,4.1,4.3,7,8.4,6.5c4.1-0.5,7-4.3,6.5-8.4L278.5,334.2z"/>
	<path class="st3" d="M233.5,334.2l-4,31.4c-0.5,4.1,2.4,7.9,6.5,8.4c0.3,0,0.6,0.1,0.9,0.1c3.7,0,7-2.8,7.4-6.6l4.2-33.3
		L233.5,334.2L233.5,334.2z"/>
</g>
<path class="st4" d="M179.1,195.7c0-8.2,0.3-16.3,0.9-24.4c-24.1,13.5-40.6,43.7-40.6,78.7c0,18.5,4.6,36.1,13.3,50.9
	c0.8,1.4,2.3,2.2,3.8,2.2c0.6,0,1.1-0.1,1.7-0.3c11.4-4.7,23.6-7.1,36.2-7.2C184.4,264.9,179.1,230.6,179.1,195.7z"/>
<path class="st5" d="M150.7,250c0-28.9,11.3-54.5,28.8-70.1c0.1-2.9,0.3-5.7,0.5-8.5c-24.1,13.5-40.6,43.7-40.6,78.7
	c0,18.5,4.6,36.1,13.3,50.9c0.8,1.4,2.3,2.2,3.8,2.2c0.6,0,1.1-0.1,1.7-0.3c1.9-0.8,3.8-1.5,5.7-2.1
	C155.2,285.9,150.7,268.4,150.7,250z"/>
<g>
	<path class="st4" d="M332,171.4c0.6,8.1,0.9,16.2,0.9,24.4c0,34.9-5.3,69.2-15.3,99.9c12.6,0.1,24.8,2.5,36.2,7.2
		c0.5,0.2,1.1,0.3,1.7,0.3c1.5,0,3-0.8,3.8-2.2c8.7-14.8,13.3-32.4,13.3-50.9C372.6,215.1,356.1,184.9,332,171.4z"/>
	<path class="st4" d="M217.7,307.1v23.1c0,2.8,2.2,5,5,5h66.6c2.8,0,5-2.2,5-5v-23.1H217.7z"/>
</g>
<path class="st5" d="M234.7,330.2v-23.1h-17v23.1c0,2.8,2.2,5,5,5h17C237,335.2,234.7,332.9,234.7,330.2z"/>
<path class="st6" d="M316.9,90.3H195.1c-11.2,32.2-17,68.3-17,105.4c0,38.5,6.4,76.4,18.5,109.5c0.6,1.7,2.3,2.9,4.2,2.9h110.5
	c1.9,0,3.5-1.2,4.2-2.9c12.1-33.1,18.5-71,18.5-109.5C333.9,158.7,328,122.5,316.9,90.3z"/>
<path class="st1" d="M210.8,305.2c-12.1-33.1-18.5-71-18.5-109.5c0-37.1,5.9-73.2,17-105.4h-14.2c-11.2,32.2-17,68.3-17,105.4
	c0,38.5,6.4,76.4,18.5,109.5c0.6,1.7,2.3,2.9,4.2,2.9h14.2C213.1,308.1,211.4,307,210.8,305.2z"/>
<path class="st4" d="M227.2,90.3v16.6c0,2.8,2.2,5,5,5h47.6c2.8,0,5-2.2,5-5V90.3H227.2z"/>
<path class="st5" d="M238.5,106.9V90.3h-11.3v16.6c0,2.8,2.2,5,5,5h11.3C240.8,111.9,238.5,109.7,238.5,106.9z"/>
<path class="st4" d="M256,0c-1,0-2,0.3-2.8,1c-22.3,18.1-41.2,45.5-54.4,79.4c-1.4,3.6-2.7,7.3-4,11h122.4c-1.3-3.7-2.6-7.4-4-11
	C299.9,46.5,281.1,19.1,258.8,1C258,0.3,257,0,256,0z"/>
<path class="st5" d="M263.1,4.6c-1.4-1.3-2.9-2.5-4.3-3.6C258,0.3,257,0,256,0s-2,0.3-2.8,1c-22.3,18.1-41.2,45.5-54.4,79.4
	c-1.4,3.6-2.7,7.3-4,11H209c1.3-3.7,2.6-7.4,4-11C225.4,48.7,242.6,22.7,263.1,4.6z"/>
<circle class="st7" cx="256" cy="180.9" r="51"/>
<ellipse transform="matrix(0.1602 -0.9871 0.9871 0.1602 36.3996 404.6426)" class="st8" cx="256" cy="180.9" rx="32.7" ry="32.7"/>
<path class="st9" d="M235.3,180.9c0,16,11.5,29.4,26.7,32.2c-1.9,0.4-3.9,0.6-6,0.6c-18.1,0-32.7-14.7-32.7-32.7
	s14.7-32.7,32.7-32.7c2,0,4.1,0.2,6,0.6C246.8,151.6,235.3,164.9,235.3,180.9z"/>
<path class="st2" d="M110.1,178.7c-1.1,0-2.2-0.7-2.6-1.8c-5.6-13.5-9.7-17.6-23.2-23.2c-1.1-0.4-1.8-1.5-1.8-2.6
	c0-1.1,0.7-2.2,1.8-2.6c13.5-5.6,17.6-9.7,23.2-23.2c0.4-1.1,1.5-1.8,2.6-1.8s2.2,0.7,2.6,1.8c5.6,13.5,9.7,17.6,23.2,23.2
	c1.1,0.4,1.8,1.5,1.8,2.6c0,1.1-0.7,2.2-1.8,2.6c-13.5,5.6-17.6,9.7-23.2,23.2C112.3,178,111.3,178.7,110.1,178.7L110.1,178.7z"/>
<path class="st1" d="M113.2,171.3c-5.6-13.5-9.7-17.6-23.2-23.2c-0.7-0.3-1.2-0.8-1.5-1.4c-1.3,0.6-2.7,1.2-4.2,1.8
	c-1.1,0.4-1.8,1.5-1.8,2.6c0,1.1,0.7,2.2,1.8,2.6c13.5,5.6,17.6,9.7,23.2,23.2c0.4,1.1,1.5,1.8,2.6,1.8s2.2-0.7,2.6-1.8
	c0.6-1.5,1.2-2.9,1.8-4.2C114,172.5,113.5,172,113.2,171.3z"/>
<path class="st2" d="M411.5,201.4c-1,0-1.9-0.6-2.3-1.5c-4.9-11.8-8.5-15.5-20.4-20.4c-0.9-0.4-1.5-1.3-1.5-2.3c0-1,0.6-1.9,1.5-2.3
	c11.8-4.9,15.5-8.5,20.4-20.4c0.4-0.9,1.3-1.5,2.3-1.5s1.9,0.6,2.3,1.5c4.9,11.8,8.5,15.5,20.4,20.4c0.9,0.4,1.5,1.3,1.5,2.3
	c0,1-0.6,1.9-1.5,2.3c-11.8,4.9-15.5,8.5-20.4,20.4C413.4,200.8,412.5,201.4,411.5,201.4L411.5,201.4z"/>
<path class="st1" d="M414.1,194.9c-4.9-11.8-8.5-15.5-20.4-20.4c-0.6-0.2-1-0.7-1.3-1.2c-1.1,0.5-2.4,1.1-3.7,1.6
	c-0.9,0.4-1.5,1.3-1.5,2.3c0,1,0.6,1.9,1.5,2.3c11.8,4.9,15.5,8.5,20.4,20.4c0.4,0.9,1.3,1.5,2.3,1.5s1.9-0.6,2.3-1.5
	c0.6-1.3,1.1-2.5,1.6-3.7C414.8,195.9,414.4,195.5,414.1,194.9z"/>
<path class="st2" d="M352.1,87.9c-0.8,0-1.4-0.5-1.7-1.2c-3.7-8.9-6.4-11.6-15.3-15.3c-0.7-0.3-1.2-1-1.2-1.7c0-0.8,0.5-1.4,1.2-1.7
	c8.9-3.7,11.6-6.4,15.3-15.3c0.3-0.7,1-1.2,1.7-1.2s1.4,0.5,1.7,1.2c3.7,8.9,6.4,11.6,15.3,15.3c0.7,0.3,1.2,1,1.2,1.7
	c0,0.8-0.5,1.4-1.2,1.7c-8.9,3.7-11.6,6.4-15.3,15.3C353.5,87.4,352.9,87.9,352.1,87.9L352.1,87.9z"/>
<path class="st1" d="M353.2,80.8c-2.7-6.5-4.7-8.5-11.1-11.1c-0.3-0.1-0.6-0.4-0.7-0.7c-0.6,0.3-1.3,0.6-2,0.9
	c-0.5,0.2-0.8,0.7-0.8,1.3c0,0.6,0.3,1,0.8,1.3c6.5,2.7,8.5,4.7,11.1,11.1c0.2,0.5,0.7,0.8,1.3,0.8c0.6,0,1-0.3,1.3-0.8
	c0.3-0.7,0.6-1.4,0.9-2C353.5,81.4,353.3,81.1,353.2,80.8z"/>
</svg>
