<?xml version="1.0" encoding="utf-8"?>
<!-- Generator: Adobe Illustrator 23.1.1, SVG Export Plug-In . SVG Version: 6.00 Build 0)  -->
<svg version="1.1" id="Capa_1" xmlns="http://www.w3.org/2000/svg" xmlns:xlink="http://www.w3.org/1999/xlink" x="0px" y="0px"
	 viewBox="0 0 512 512" style="enable-background:new 0 0 512 512;" xml:space="preserve">
<style type="text/css">
	.st0{fill:#0948B3;}
	.st1{fill:#EE5050;}
	.st2{fill:#CF4D50;}
	.st3{fill:#05A677;}
	.st4{fill:#058A77;}
	.st5{fill:#FFE2B8;}
	.st6{fill:#FFC987;}
	.st7{fill:#FFFFFF;}
	.st8{fill:#EF9614;}
	.st9{fill:#FFD00D;}
	.st10{fill:#FFAF10;}
	.st11{fill:#DB722C;}
</style>
<circle class="st0" cx="256" cy="267" r="245"/>
<path class="st1" d="M407.9,185.2c-43.6,0-80.2-30.5-89.7-71.2H106.3c-5.5,0-10,4.5-10,10v117c0,5.5,4.5,10,10,10h299.5
	c5.5,0,10-4.5,10-10v-56.1C413.1,185.1,410.5,185.2,407.9,185.2z"/>
<path class="st2" d="M116.1,241V124c0-5.5,4.5-10,10-10h-19.8c-5.5,0-10,4.5-10,10v117c0,5.5,4.5,10,10,10h19.8
	C120.6,251,116.1,246.5,116.1,241z"/>
<path class="st3" d="M235.5,458.9v52.3c6.8,0.6,13.6,0.9,20.5,0.9c34.7,0,67.6-7.2,97.5-20.2v-32.9L235.5,458.9L235.5,458.9z"/>
<path class="st4" d="M255.3,458.9h-19.8v52.3c6.5,0.5,13.2,0.8,19.8,0.9V458.9z"/>
<path class="st5" d="M355.5,410V284.5c0-8.2-6.8-15-15-15h-6c-5.9,0-11.1,3.5-13.5,8.5c-2.4-5-7.6-8.5-13.5-8.5h-6
	c-5.9,0-11.1,3.5-13.5,8.5c-2.4-5-7.6-8.5-13.5-8.5h-6c-4.9,0-9.3,2.4-12,6.1v-58.4c0-8.2-6.8-15-15-15h-6c-8.2,0-15,6.8-15,15v123
	l-16.7-16.7c-5.8-5.8-15.4-5.8-21.2,0l-6.2,6.2c-5.8,5.8-5.8,15.4,0,21.2l59.2,59.2L355.5,410L355.5,410z"/>
<path class="st6" d="M255.4,410l-59.2-59.2c-5.8-5.8-5.8-15.4,0-21.2l6.2-6.2c0.2-0.2,0.5-0.4,0.7-0.6c-5.9-5.2-14.9-5-20.5,0.6
	l-6.2,6.2c-5.8,5.8-5.8,15.4,0,21.2l59.2,59.2H255.4z"/>
<g>
	<path class="st4" d="M365.5,454.9c0,2.8-2.2,5-5,5h-132c-2.8,0-5-2.2-5-5V414c0-2.8,2.2-5,5-5h132c2.8,0,5,2.2,5,5V454.9z"/>
	<path class="st4" d="M243.3,454.9V414c0-2.8,2.2-5,5-5h-19.8c-2.8,0-5,2.2-5,5v40.8c0,2.8,2.2,5,5,5h19.8
		C245.6,459.9,243.3,457.6,243.3,454.9z"/>
</g>
<g>
	<circle class="st7" cx="339.5" cy="434.5" r="11"/>
	<path class="st7" d="M237.5,188.5c-4.1,0-7.5-3.4-7.5-7.5v-15c0-4.1,3.4-7.5,7.5-7.5s7.5,3.4,7.5,7.5v15
		C245,185.1,241.6,188.5,237.5,188.5z"/>
	<path class="st7" d="M262.2,198.8c-1.9,0-3.8-0.7-5.3-2.2c-2.9-2.9-2.9-7.7,0-10.6l10.6-10.6c2.9-2.9,7.7-2.9,10.6,0
		s2.9,7.7,0,10.6l-10.6,10.6C266.1,198,264.2,198.8,262.2,198.8z"/>
	<path class="st7" d="M287.5,223.5h-15c-4.1,0-7.5-3.4-7.5-7.5s3.4-7.5,7.5-7.5h15c4.1,0,7.5,3.4,7.5,7.5S291.6,223.5,287.5,223.5z"
		/>
	<path class="st7" d="M202.5,223.5h-15c-4.1,0-7.5-3.4-7.5-7.5s3.4-7.5,7.5-7.5h15c4.1,0,7.5,3.4,7.5,7.5S206.6,223.5,202.5,223.5z"
		/>
	<path class="st7" d="M212.7,198.8c-1.9,0-3.8-0.7-5.3-2.2l-10.6-10.6c-2.9-2.9-2.9-7.7,0-10.6c2.9-2.9,7.7-2.9,10.6,0l10.6,10.6
		c2.9,2.9,2.9,7.7,0,10.6C216.6,198,214.7,198.8,212.7,198.8z"/>
</g>
<circle class="st8" cx="407.9" cy="93.1" r="93.1"/>
<circle class="st9" cx="407.9" cy="93.1" r="66.2"/>
<path class="st10" d="M361.6,93.1c0-33.2,24.4-60.6,56.2-65.4c-3.2-0.5-6.5-0.7-9.9-0.7c-36.5,0-66.2,29.6-66.2,66.2
	s29.6,66.2,66.2,66.2c3.4,0,6.7-0.3,9.9-0.7C386,153.7,361.6,126.3,361.6,93.1z"/>
<path class="st11" d="M420.9,85.9h-23.5V75.6h28.5c4.1,0,7.5-3.4,7.5-7.5s-3.4-7.5-7.5-7.5h-10.5v-6.5c0-4.1-3.4-7.5-7.5-7.5
	s-7.5,3.4-7.5,7.5v6.5h-5.5c-6.9,0-12.5,5.6-12.5,12.5v15.3c0,6.9,5.6,12.5,12.5,12.5h23.5v10.3h-28.5c-4.1,0-7.5,3.4-7.5,7.5
	s3.4,7.5,7.5,7.5h10.5v5.8c0,4.1,3.4,7.5,7.5,7.5s7.5-3.4,7.5-7.5v-5.8h5.5c6.9,0,12.5-5.6,12.5-12.5V98.4
	C433.4,91.5,427.8,85.9,420.9,85.9z"/>
<circle class="st8" cx="92.1" cy="422" r="81.1"/>
<circle class="st9" cx="92.1" cy="422" r="54.6"/>
<path class="st10" d="M57.3,422c0-26.8,19.3-49.1,44.7-53.7c-3.2-0.6-6.5-0.9-9.9-0.9c-30.2,0-54.6,24.5-54.6,54.6
	c0,30.2,24.5,54.6,54.6,54.6c3.4,0,6.7-0.3,9.9-0.9C76.6,471.1,57.3,448.8,57.3,422z"/>
<path class="st11" d="M103.4,414.8H83.9v-7.1h23.9c4.1,0,7.5-3.4,7.5-7.5s-3.4-7.5-7.5-7.5h-8.2v-4.7c0-4.1-3.4-7.5-7.5-7.5
	s-7.5,3.4-7.5,7.5v4.7h-3.8c-6.5,0-11.9,5.3-11.9,11.9V418c0,6.5,5.3,11.9,11.9,11.9h19.5v7.1H76.4c-4.1,0-7.5,3.4-7.5,7.5
	s3.4,7.5,7.5,7.5h8.2v4.1c0,4.1,3.4,7.5,7.5,7.5s7.5-3.4,7.5-7.5v-4.1h3.8c6.5,0,11.9-5.3,11.9-11.9v-13.4
	C115.3,420.1,110,414.8,103.4,414.8z"/>
</svg>
